<svg width="107" height="108" viewBox="0 0 107 108" fill="none" xmlns="http://www.w3.org/2000/svg">
<rect x="0.934082" y="54" width="75" height="75" transform="rotate(-45 0.934082 54)" fill="url(#paint0_linear_232_8)"/>
<path d="M42.2962 22.856L49.4962 22.4C49.7042 22.4 49.9042 22.6 50.0962 23C50.0962 23.608 49.3922 23.912 47.9842 23.912L43.7842 24.152L43.6882 24.2C44.0882 26.808 44.2882 31.76 44.2882 39.056C44.2082 39.76 43.9522 40.112 43.5202 40.112C43.1042 40.112 42.8642 39.792 42.8002 39.152V33.584C42.8002 29.872 42.6322 26.776 42.2962 24.296C39.4322 24.568 38.0002 24.888 38.0002 25.256L37.7842 25.352C37.2882 25.208 37.0402 24.952 37.0402 24.584C37.0402 23.704 38.7922 23.128 42.2962 22.856ZM52.2995 28.736C53.0035 28.736 53.3555 29.016 53.3555 29.576L53.1395 30.032L52.9955 34.424C52.9955 36.408 53.3955 37.64 54.1955 38.12L54.2435 38.48C54.1955 38.944 53.9795 39.176 53.5955 39.176H53.4515C52.2515 38.36 51.6515 37.112 51.6515 35.432H51.4835C50.8435 37.224 50.0675 38.12 49.1555 38.12C48.3075 37.88 47.8835 37.248 47.8835 36.224C47.8835 33.968 48.7875 31.72 50.5955 29.48C51.2035 28.984 51.7715 28.736 52.2995 28.736ZM49.3955 35.264L49.2995 35.936V36.392H49.5395C50.7395 33.4 51.3395 31.576 51.3395 30.92H51.2435C50.3155 31.96 49.6995 33.408 49.3955 35.264ZM59.6433 28.28C60.0753 28.28 60.3713 29.008 60.5313 30.464C60.3713 30.864 60.1073 31.064 59.7393 31.064C59.4833 31.016 59.2273 30.72 58.9713 30.176L58.5393 30.032C57.7873 30.032 57.1073 30.528 56.4993 31.52V31.736C56.4993 31.976 57.6273 32.376 59.8833 32.936C60.8273 33.496 61.2993 34.176 61.2993 34.976C61.2993 36.288 60.2433 37.408 58.1313 38.336L57.2433 38.48C55.8993 38.336 55.2273 37.664 55.2273 36.464V36.392C55.2273 36.008 55.4753 35.784 55.9713 35.72C56.3553 35.72 56.6113 36.12 56.7393 36.92L56.9313 37.064H57.3393C58.2513 37.064 59.0993 36.44 59.8833 35.192V34.88C59.8833 34.4 58.8353 33.952 56.7393 33.536C55.6353 33.088 55.0833 32.464 55.0833 31.664C55.0833 30.624 55.9553 29.648 57.6993 28.736C58.4673 28.64 59.1153 28.488 59.6433 28.28ZM63.4027 25.304H63.5467C63.7547 25.304 63.9547 25.48 64.1467 25.832L64.0507 27.464V28.376L64.1467 32.576L64.2187 32.816H64.2907C64.9787 32.176 65.5787 31.048 66.0907 29.432L66.6187 29.264C67.0667 29.328 67.2907 29.528 67.2907 29.864C67.2907 30.904 66.5467 32.304 65.0587 34.064V34.232C67.0267 36.52 68.3227 37.664 68.9467 37.664H69.0907L69.6907 37.304H69.9067C70.2427 37.304 70.4907 37.528 70.6507 37.976C70.6507 38.488 70.0827 38.84 68.9467 39.032C67.8107 39.032 66.3307 37.88 64.5067 35.576H64.2907L64.3627 36.872V38.12C64.2667 38.616 64.0187 38.864 63.6187 38.864C63.1707 38.768 62.9467 38.52 62.9467 38.12V37.976L62.8507 35.216C62.6747 35.216 62.5547 34.968 62.4907 34.472L62.8027 33.872L62.6587 28.472V27.416C62.6587 26.008 62.9067 25.304 63.4027 25.304ZM34.4149 56.48H34.4869C34.8869 56.688 35.0869 56.92 35.0869 57.176L34.4869 61.736C34.4869 63.4 34.9829 66.848 35.9749 72.08L37.1749 75.08C37.1749 75.288 37.0069 75.52 36.6709 75.776H36.2149C35.8949 75.68 35.4149 74.696 34.7749 72.824C34.3589 71.32 33.9429 69 33.5269 65.864H33.3829C32.4549 68.616 31.7989 70.04 31.4149 70.136L31.0309 70.232C30.6949 70.232 30.2789 69.576 29.7829 68.264H29.6149C29.4229 72.216 29.0469 74.192 28.4869 74.192H28.4149C27.9029 74.192 27.6229 73.792 27.5749 72.992C27.9749 71.456 28.1749 69.856 28.1749 68.192L27.5269 61.832V61.376C27.5269 60.768 27.7429 60.464 28.1749 60.464C28.7989 60.464 29.3509 61.688 29.8309 64.136C30.5349 66.36 30.9669 67.56 31.1269 67.736C31.4949 67.16 31.8629 66.136 32.2309 64.664C32.5189 63.912 32.7989 62.736 33.0709 61.136L32.9749 61.064L33.0709 60.68V60.536C33.2149 57.832 33.6629 56.48 34.4149 56.48ZM42.4206 64.736C43.1246 64.736 43.4766 65.016 43.4766 65.576L43.2606 66.032L43.1166 70.424C43.1166 72.408 43.5166 73.64 44.3166 74.12L44.3646 74.48C44.3166 74.944 44.1006 75.176 43.7166 75.176H43.5726C42.3726 74.36 41.7726 73.112 41.7726 71.432H41.6046C40.9646 73.224 40.1886 74.12 39.2766 74.12C38.4286 73.88 38.0046 73.248 38.0046 72.224C38.0046 69.968 38.9086 67.72 40.7166 65.48C41.3246 64.984 41.8926 64.736 42.4206 64.736ZM39.5166 71.264L39.4206 71.936V72.392H39.6606C40.8606 69.4 41.4606 67.576 41.4606 66.92H41.3646C40.4366 67.96 39.8206 69.408 39.5166 71.264ZM48.0604 65.912C49.4204 66.024 50.1004 66.688 50.1004 67.904L50.1484 68.216L50.1004 71.96C50.1004 72.392 50.3484 72.976 50.8444 73.712V73.76C50.7164 74.224 50.4844 74.456 50.1484 74.456C49.1564 74.04 48.6604 73.16 48.6604 71.816V71.504L48.5884 71.456L48.6604 71.36V71.312L48.7324 68C48.7324 67.536 48.5324 67.304 48.1324 67.304H47.8444C47.0444 67.624 46.6444 69.376 46.6444 72.56C46.6444 73.664 46.3644 74.216 45.8044 74.216C45.3724 74.216 45.1484 73.944 45.1324 73.4V71C45.1324 67.896 45.4044 66.344 45.9484 66.344L46.1884 66.272L46.6924 66.344C47.1244 66.056 47.5804 65.912 48.0604 65.912ZM56.0846 64.736C56.7886 64.736 57.1406 65.016 57.1406 65.576L56.9246 66.032L56.7806 70.424C56.7806 72.408 57.1806 73.64 57.9806 74.12L58.0286 74.48C57.9806 74.944 57.7646 75.176 57.3806 75.176H57.2366C56.0366 74.36 55.4366 73.112 55.4366 71.432H55.2686C54.6286 73.224 53.8526 74.12 52.9406 74.12C52.0926 73.88 51.6686 73.248 51.6686 72.224C51.6686 69.968 52.5726 67.72 54.3806 65.48C54.9886 64.984 55.5566 64.736 56.0846 64.736ZM53.1806 71.264L53.0846 71.936V72.392H53.3246C54.5246 69.4 55.1246 67.576 55.1246 66.92H55.0286C54.1006 67.96 53.4846 69.408 53.1806 71.264ZM62.4684 64.784C63.2044 64.784 63.5724 65.136 63.5724 65.84C63.6684 65.84 63.7164 65.96 63.7164 66.2H63.8124L63.7164 66.896L63.8124 71.744L63.6684 75.584C65.1084 75.584 66.0764 76.64 66.5724 78.752C66.5724 79.184 66.2764 79.432 65.6844 79.496C65.4124 79.496 65.1084 78.896 64.7724 77.696C64.4524 77.232 64.0844 77 63.6684 77H63.5724C63.0604 80.408 62.6124 82.112 62.2284 82.112C61.7644 82.96 61.0924 83.384 60.2124 83.384C58.9164 83.08 58.2684 82.432 58.2684 81.44V81.296C58.2684 79.792 59.3404 78.16 61.4844 76.4L62.2284 75.944L62.3244 73.352V72.752H62.2284C61.6844 73.44 61.1644 73.784 60.6684 73.784H60.5244C59.4204 73.784 58.7884 72.936 58.6284 71.24V70.712C58.6284 68.664 59.3804 66.888 60.8844 65.384C61.3484 64.984 61.8764 64.784 62.4684 64.784ZM60.0684 70.4V71.552C60.1324 72.08 60.2524 72.344 60.4284 72.344H60.6684C61.1164 72.344 61.6684 70.696 62.3244 67.4V66.2C61.3644 66.2 60.6124 67.6 60.0684 70.4ZM59.6844 81.344C59.7484 81.744 59.9724 81.944 60.3564 81.944C61.1244 81.944 61.6764 80.576 62.0124 77.84H61.8684C60.4124 79.104 59.6844 80.272 59.6844 81.344ZM67.2332 65.384C67.8732 65.4 68.9532 66.52 70.4732 68.744L70.5212 69.152C70.5212 69.6 69.4252 69.944 67.2332 70.184L67.1612 70.256V70.352C67.4972 71.792 67.8492 72.512 68.2172 72.512H68.5052C69.0172 72.512 69.7932 71.96 70.8332 70.856H70.9772C71.2972 70.856 71.5452 71.088 71.7212 71.552C71.7212 71.936 71.0492 72.6 69.7052 73.544C69.3532 73.752 68.9292 73.904 68.4332 74C67.1372 74 66.2332 72.784 65.7212 70.352C64.9852 70.24 64.6172 69.936 64.6172 69.44C64.6172 69.088 64.8892 68.856 65.4332 68.744V68.84L65.6732 68.744V68.144C65.6732 66.304 66.1932 65.384 67.2332 65.384ZM67.3772 67.112H67.1612L67.0652 68V68.744H67.1612C68.0572 68.712 68.5052 68.616 68.5052 68.456C68.0892 67.832 67.7132 67.384 67.3772 67.112ZM75.8115 64.544C76.8195 64.544 77.4195 65.248 77.6115 66.656V66.872C77.6115 68.424 76.8115 69.848 75.2115 71.144C76.1395 72.056 77.7635 72.512 80.0835 72.512C80.4355 72.624 80.6115 72.872 80.6115 73.256C80.6115 73.688 80.3315 73.904 79.7715 73.904C78.2035 73.904 76.5555 73.504 74.8275 72.704V73.4C74.8275 75.048 74.4755 75.872 73.7715 75.872C73.2755 75.872 73.0275 74.92 73.0275 73.016V71.144L72.9555 70.472L73.1235 69.704L72.9555 67.4V67.304C72.9555 66.872 73.1795 66.576 73.6275 66.416C74.2515 65.168 74.9795 64.544 75.8115 64.544ZM74.6115 69.8C75.0755 69.8 75.5955 68.968 76.1715 67.304V66.272L75.8835 65.96H75.6675C74.9635 66.44 74.6115 67.72 74.6115 69.8Z" fill="white"/>
<defs>
<linearGradient id="paint0_linear_232_8" x1="38.4341" y1="54" x2="38.4341" y2="129" gradientUnits="userSpaceOnUse">
<stop offset="0.432692" stop-color="#7C77E5"/>
<stop offset="1" stop-color="#45427F"/>
</linearGradient>
</defs>
</svg>
